<mxfile host="app.diagrams.net" modified="2024-06-20T18:56:27.092Z" agent="Mozilla/5.0 (Windows NT 10.0; Win64; x64) AppleWebKit/537.36 (KHTML, like Gecko) Chrome/126.0.0.0 Safari/537.36" etag="SlGyKHbt5vfY6ne7SiIO" version="24.5.2" type="github">
  <diagram name="Page-1" id="1w2tEelK1aa2yW6Xo0aJ">
    <mxGraphModel dx="2268" dy="730" grid="1" gridSize="10" guides="1" tooltips="1" connect="1" arrows="1" fold="1" page="1" pageScale="1" pageWidth="850" pageHeight="1100" math="0" shadow="0">
      <root>
        <mxCell id="0" />
        <mxCell id="1" parent="0" />
        <mxCell id="r_rcIVD4R6eYlXBfgZPq-5" value="IDM Server&lt;br&gt;(Authentication)" style="rounded=1;whiteSpace=wrap;html=1;" vertex="1" parent="1">
          <mxGeometry x="-160" y="440" width="120" height="60" as="geometry" />
        </mxCell>
        <mxCell id="r_rcIVD4R6eYlXBfgZPq-8" value="HSIS DataCenter" style="swimlane;whiteSpace=wrap;html=1;" vertex="1" parent="1">
          <mxGeometry width="350" height="680" as="geometry" />
        </mxCell>
        <mxCell id="r_rcIVD4R6eYlXBfgZPq-11" style="edgeStyle=orthogonalEdgeStyle;rounded=0;orthogonalLoop=1;jettySize=auto;html=1;exitX=1;exitY=0.5;exitDx=0;exitDy=0;entryX=0;entryY=0.25;entryDx=0;entryDy=0;" edge="1" parent="r_rcIVD4R6eYlXBfgZPq-8" source="r_rcIVD4R6eYlXBfgZPq-9" target="r_rcIVD4R6eYlXBfgZPq-4">
          <mxGeometry relative="1" as="geometry" />
        </mxCell>
        <mxCell id="r_rcIVD4R6eYlXBfgZPq-9" value="Firewall&lt;div&gt;F5&lt;/div&gt;" style="rhombus;whiteSpace=wrap;html=1;" vertex="1" parent="r_rcIVD4R6eYlXBfgZPq-8">
          <mxGeometry x="-50" y="260" width="100" height="130" as="geometry" />
        </mxCell>
        <mxCell id="r_rcIVD4R6eYlXBfgZPq-1" value="Web Server&lt;div&gt;(React UI)&lt;/div&gt;" style="rounded=0;whiteSpace=wrap;html=1;" vertex="1" parent="r_rcIVD4R6eYlXBfgZPq-8">
          <mxGeometry x="160" y="100" width="120" height="60" as="geometry" />
        </mxCell>
        <mxCell id="r_rcIVD4R6eYlXBfgZPq-2" value="API Server&lt;div&gt;(.net Web API)&lt;/div&gt;" style="rounded=0;whiteSpace=wrap;html=1;" vertex="1" parent="r_rcIVD4R6eYlXBfgZPq-8">
          <mxGeometry x="160" y="200" width="120" height="60" as="geometry" />
        </mxCell>
        <mxCell id="r_rcIVD4R6eYlXBfgZPq-4" value="DataLENS" style="swimlane;whiteSpace=wrap;html=1;" vertex="1" parent="r_rcIVD4R6eYlXBfgZPq-8">
          <mxGeometry x="120" y="50" width="200" height="610" as="geometry" />
        </mxCell>
        <mxCell id="r_rcIVD4R6eYlXBfgZPq-3" value="Database Server&lt;div&gt;(Oracle 19c)&lt;/div&gt;" style="shape=cylinder3;whiteSpace=wrap;html=1;boundedLbl=1;backgroundOutline=1;size=15;" vertex="1" parent="r_rcIVD4R6eYlXBfgZPq-4">
          <mxGeometry x="40" y="310" width="120" height="80" as="geometry" />
        </mxCell>
        <mxCell id="r_rcIVD4R6eYlXBfgZPq-12" value="" style="endArrow=none;html=1;rounded=0;dashed=1;" edge="1" parent="r_rcIVD4R6eYlXBfgZPq-4">
          <mxGeometry width="50" height="50" relative="1" as="geometry">
            <mxPoint y="270" as="sourcePoint" />
            <mxPoint x="200" y="270" as="targetPoint" />
          </mxGeometry>
        </mxCell>
        <mxCell id="r_rcIVD4R6eYlXBfgZPq-6" value="Job Server&lt;div&gt;(Control-M)&lt;/div&gt;" style="rounded=1;whiteSpace=wrap;html=1;" vertex="1" parent="r_rcIVD4R6eYlXBfgZPq-8">
          <mxGeometry x="160" y="480" width="120" height="60" as="geometry" />
        </mxCell>
        <mxCell id="r_rcIVD4R6eYlXBfgZPq-7" value="File Server&lt;div&gt;(/mnt/nfs/Datalens/)&lt;/div&gt;" style="rounded=1;whiteSpace=wrap;html=1;" vertex="1" parent="r_rcIVD4R6eYlXBfgZPq-8">
          <mxGeometry x="160" y="580" width="120" height="60" as="geometry" />
        </mxCell>
        <mxCell id="r_rcIVD4R6eYlXBfgZPq-10" style="edgeStyle=orthogonalEdgeStyle;rounded=0;orthogonalLoop=1;jettySize=auto;html=1;exitX=0;exitY=0.5;exitDx=0;exitDy=0;entryX=0.5;entryY=0;entryDx=0;entryDy=0;endArrow=none;endFill=0;" edge="1" parent="1" source="r_rcIVD4R6eYlXBfgZPq-9" target="r_rcIVD4R6eYlXBfgZPq-5">
          <mxGeometry relative="1" as="geometry" />
        </mxCell>
      </root>
    </mxGraphModel>
  </diagram>
</mxfile>
